<svg width="24" height="24" viewBox="0 0 24 24" fill="none" xmlns="http://www.w3.org/2000/svg">
<path d="M6.35742 18.1328C5.87207 18.1328 5.60547 17.8184 5.60547 17.292V15.4189H4.70312C2.91895 15.4189 1.74316 14.3457 1.74316 12.4863V6.19043C1.74316 4.33789 2.91895 3.25781 4.70312 3.25781H14.4854C16.3447 3.25781 17.4453 4.33789 17.4453 6.19043V6.70996H18.5186C20.2344 6.70996 21.376 7.74902 21.376 9.54004V13.5801C21.376 15.3643 20.2344 16.4033 18.5186 16.4033H18.2314V18.0439C18.2314 18.5635 17.9648 18.8984 17.4932 18.8984C17.165 18.8984 16.9395 18.7139 16.5225 18.3584L14.2393 16.4033H11.8809C10.9307 16.4033 10.1855 16.1094 9.69336 15.5693L7.40332 17.627C6.96582 18.0098 6.71973 18.1328 6.35742 18.1328ZM6.6377 14.9609V16.916L9.16016 14.585C9.07129 14.2842 9.03027 13.9492 9.03027 13.5801V9.54004C9.03027 7.74902 10.0898 6.70996 11.8809 6.70996H16.3447V6.23145C16.3447 4.95996 15.627 4.29004 14.417 4.29004H4.77148C3.56152 4.29004 2.84375 4.95996 2.84375 6.23145V12.459C2.84375 13.7305 3.56152 14.3936 4.77148 14.3936H6.10449C6.40527 14.3936 6.6377 14.5713 6.6377 14.9609ZM17.2061 17.6611V15.9316C17.2061 15.5488 17.4385 15.3711 17.7324 15.3711H18.457C19.5918 15.3711 20.2754 14.7559 20.2754 13.5459V9.57422C20.2754 8.37109 19.5918 7.74219 18.457 7.74219H11.9492C10.8076 7.74219 10.1309 8.37109 10.1309 9.57422L10.124 13.5459C10.124 14.7559 10.8076 15.3711 11.9492 15.3711H14.1982C14.5742 15.3711 14.7383 15.4531 15.0117 15.6924L17.2061 17.6611Z" fill="black"/>
</svg>
