<svg width="132" height="132" viewBox="0 0 132 132" fill="none" xmlns="http://www.w3.org/2000/svg">
<g clip-path="url(#clip0_69_358)">
<path d="M130.99 106.892V130.99H1.01025V102.224" fill="#FBFFFE"/>
<path d="M130.99 106.892V130.99H1.01025V102.224" stroke="#FDD14A" stroke-width="6" stroke-miterlimit="10"/>
<path d="M1.01025 25.7818V1.01028H130.99V25.8685" fill="#FBFFFE"/>
<path d="M1.01025 25.7818V1.01028H130.99V25.8685" stroke="#FDD14A" stroke-width="6" stroke-miterlimit="10"/>
<path d="M11.0734 86.7402L10.9509 85.3896C11.9749 84.8572 13.152 84.2023 14.4822 83.425C15.8124 82.6459 17.1731 81.7886 18.5663 80.8463C19.9577 79.9056 21.2368 78.9633 22.4037 78.0209C23.5706 77.0803 24.5231 76.1787 25.2597 75.3197C25.9962 74.4607 26.3653 73.7038 26.3653 73.0472C26.3653 72.1066 25.7308 70.8666 24.4619 69.3323C23.1929 67.7963 21.0021 66.313 17.891 64.8808C18.0543 64.3501 18.3519 63.6118 18.7806 62.6695C19.2109 61.7288 19.6906 60.715 20.223 59.6298C20.7537 58.5463 21.2759 57.5325 21.7896 56.5901C22.3016 55.6495 22.7422 54.9317 23.1096 54.4401H23.7849C24.9297 55.1375 26.0268 56.0373 27.0695 57.1413C28.1122 58.2452 28.9729 59.5567 29.6482 61.0706C30.3235 62.5861 30.662 64.3245 30.662 66.2909C30.662 67.8065 30.4562 69.4224 30.0479 71.1421C29.638 72.8618 29.0546 74.5305 28.2976 76.1464C27.539 77.7641 26.68 79.1861 25.7189 80.4142C24.7562 81.6423 23.7237 82.5438 22.618 83.1154C20.4884 84.1785 16.6407 85.3879 11.0734 86.7385V86.7402Z" fill="#135F50"/>
<path d="M48.3454 82.6272C45.316 82.6272 43.0945 81.4705 41.6827 79.1572C40.2708 76.8455 39.5632 73.4367 39.5632 68.9325C39.5632 65.5356 39.6347 62.2187 39.7776 58.9851C39.9204 55.7515 40.0939 52.7731 40.2998 50.0498C40.5039 47.3282 40.7301 44.9741 40.9751 42.989C41.22 41.004 41.4445 39.5615 41.6503 38.66C42.1419 36.6137 42.8785 34.382 43.8616 31.9666L45.151 32.3357C44.7002 35.1202 44.3532 38.6821 44.1066 43.0196C43.8616 47.3589 43.7375 52.4567 43.7375 58.3098C43.7375 59.8662 43.7885 61.4941 43.8905 63.1917C43.9926 64.891 44.2784 66.4763 44.7496 67.951C45.219 69.4241 45.9777 70.6216 47.0221 71.5435C48.0665 72.4655 49.5089 72.9247 51.3511 72.9247C53.1933 72.9247 53.991 74.0916 53.991 76.4254C53.991 77.9818 53.6848 79.2099 53.0691 80.1097C52.455 81.0112 51.7083 81.6559 50.8272 82.0437C49.9461 82.4333 49.1177 82.6272 48.3403 82.6272H48.3454Z" fill="#135F50"/>
<path d="M59.5227 56.7756C57.803 55.0167 56.1054 53.5011 54.4265 52.2322V51.6794C54.7956 51.1487 55.3382 50.4615 56.0544 49.6229C56.7705 48.7843 57.4883 47.9865 58.2044 47.2279C58.9205 46.471 59.4427 45.9896 59.771 45.7855H60.3238C62.2068 46.9728 63.4758 47.9661 64.1307 48.7639C64.7855 49.5617 65.1138 50.3101 65.1138 51.0058C65.1138 52.4789 63.4145 54.4044 60.0177 56.7773H59.5261L59.5227 56.7756Z" fill="#135F50"/>
<path d="M48.2843 82.6272C46.5646 82.6272 45.7056 81.4603 45.7056 79.1266C45.7056 77.6127 46.0032 76.405 46.5952 75.5034C47.1888 74.6036 47.9254 73.9487 48.8065 73.5388C49.6859 73.1306 50.5347 72.9247 51.3546 72.9247C53.8108 72.9247 55.7754 71.9841 57.2502 70.0994L59.3373 67.3353C59.9922 66.4355 60.8308 65.9847 61.8548 65.9847C62.7954 65.9847 63.5949 66.1905 64.2498 66.5988C64.9046 67.0087 65.7432 67.2128 66.7672 67.2128C67.2979 67.2128 67.7283 67.4578 68.0566 67.9494C68.3832 68.4409 68.5481 68.9733 68.5481 69.5466C68.5481 70.9805 68.0974 72.0334 67.1976 72.7087C66.296 73.384 65.4575 73.7225 64.6801 73.7225C63.5336 73.7225 62.5318 73.4776 61.6711 72.986C60.892 72.4944 60.2984 72.2495 59.8901 72.2495C59.3985 72.2495 58.9478 72.525 58.5395 73.0778C58.1296 73.6307 57.638 74.3587 57.0665 75.2585C56.2466 76.57 55.4182 77.7862 54.5796 78.9122C53.7393 80.0383 52.8191 80.9381 51.8155 81.6134C50.8119 82.2887 49.6349 82.6272 48.2843 82.6272Z" fill="#135F50"/>
<path d="M64.6801 73.7225C64.2719 73.7225 63.8721 73.5082 63.4826 73.0778C63.0931 72.6475 62.8992 72.064 62.8992 71.3275C62.8992 70.0586 63.2989 69.055 64.0967 68.3185C64.8944 67.5819 65.7636 67.2128 66.706 67.2128C67.8933 67.2128 69.203 66.8964 70.6353 66.262C72.0675 65.6275 73.4793 64.4912 74.8724 62.8532C75.1174 62.5674 75.3028 62.331 75.4253 62.1473C75.5477 61.9636 75.7638 61.6472 76.0699 61.1947C76.3761 60.744 76.8779 60.0074 77.5736 58.9834C78.2693 57.9611 79.1895 57.4491 80.3377 57.4491C80.7885 57.4491 81.4842 57.655 82.4248 58.0632C82.8756 58.2265 83.3144 58.3813 83.7448 58.5242C84.1751 58.6688 84.614 58.7385 85.0648 58.7385C86.2929 58.7385 87.2845 58.3609 88.0432 57.6022C88.8018 56.8436 89.6914 55.5866 90.7137 53.826L91.3278 53.6423C92.2684 54.1339 93.2312 54.3789 94.2144 54.3789C95.1976 54.3789 96.0259 53.9094 96.7012 52.967C97.3765 52.0264 97.9804 50.7166 98.5128 49.0378L100.294 49.4069C98.4924 57.1855 95.4629 61.0739 91.2053 61.0739C90.8362 61.0739 90.4773 61.0433 90.1303 60.9821C89.7816 60.9209 89.4023 60.8494 88.994 60.7678C87.1927 63.7564 85.1872 65.2499 82.9759 65.2499C81.8295 65.2499 80.8276 65.0049 79.9669 64.5133C79.1079 64.0218 78.5142 63.7768 78.186 63.7768C77.776 63.7768 77.162 64.3296 76.3438 65.4353C74.3791 68.2198 72.8227 70.0824 71.6763 71.023C70.489 72.047 69.3527 72.7529 68.2675 73.1408C67.1823 73.5303 65.9848 73.7242 64.675 73.7242L64.6801 73.7225Z" fill="#135F50"/>
<path d="M104.286 95.5836L103.855 95.2145C104.184 94.1497 104.714 93.2396 105.453 92.4827C106.189 91.7241 106.783 91.224 107.234 90.979L107.295 90.7341C107.213 90.6116 107.101 90.467 106.956 90.3037C106.813 90.1404 106.64 89.9754 106.434 89.8122C106.065 89.443 105.881 88.8494 105.881 88.0312C105.881 87.213 106.138 86.4238 106.648 85.5444C107.16 84.6633 107.805 83.8247 108.583 83.0269C109.36 82.2291 110.188 81.5845 111.069 81.0929C111.949 80.6013 112.758 80.3564 113.495 80.3564C113.987 80.3564 114.478 80.4788 114.968 80.7255C115.46 80.9704 115.705 81.4212 115.705 82.0761C115.705 82.5268 115.602 82.9044 115.397 83.2123C115.191 83.5185 114.987 83.7124 114.783 83.7958H114.475C113.902 83.2225 113.206 82.9368 112.388 82.9368C111.733 82.9368 111.037 83.1409 110.301 83.5508C109.564 83.959 109.195 84.5731 109.195 85.393C109.195 86.1295 109.544 86.7334 110.239 87.2045C110.935 87.674 111.855 87.9104 113.003 87.9104C113.822 87.9104 114.692 87.6128 115.613 87.0208C116.535 86.4272 117.261 85.8642 117.793 85.3317L118.346 85.7009C118.018 86.684 117.61 87.4818 117.118 88.0959C116.627 88.7099 115.9 89.3036 114.937 89.8768C113.975 90.45 112.573 91.1457 110.731 91.9639C109.503 92.4946 108.356 93.0695 107.291 93.6836C106.227 94.2977 105.225 94.9321 104.282 95.587L104.286 95.5836Z" fill="#135F50"/>
<path d="M111.41 76.4254L110.059 76.1192C110.263 75.1785 110.467 73.6834 110.673 71.6371C110.877 69.5908 111.042 67.0937 111.165 64.1459L111.718 49.4698C111.799 47.6276 111.891 46.0117 111.993 44.6186C112.095 43.2272 112.309 41.846 112.638 40.4733C112.964 39.1023 113.466 37.5357 114.141 35.7751C114.817 34.0146 115.727 31.8458 116.873 29.2654L118.163 29.757C117.834 30.5769 117.559 32.0193 117.334 34.086C117.108 36.1544 116.894 38.8454 116.69 42.1606L115.645 59.4767C115.482 62.0962 115.062 64.8195 114.386 67.6432C113.711 70.4685 112.718 73.3959 111.408 76.4237L111.41 76.4254Z" fill="#135F50"/>
</g>
<defs>
<clipPath id="clip0_69_358">
<rect width="131" height="131" fill="white" transform="translate(0.5 0.5)"/>
</clipPath>
</defs>
</svg>
