<svg width="168" height="57" viewBox="0 0 168 57" fill="none" xmlns="http://www.w3.org/2000/svg">
<path d="M19.0312 42V40.375C20.3854 40.1458 21.1979 39.8438 21.4688 39.4688C21.7188 39.1146 21.6667 38.4375 21.3125 37.4375C20.6875 35.6667 20.0312 33.9062 19.3438 32.1562H10.2812C9.32292 34.8646 8.75 36.5417 8.5625 37.1875C8.20833 38.2917 8.16667 39.0312 8.4375 39.4062C8.77083 39.8438 9.75 40.1667 11.375 40.375V42H0.90625L0.96875 40.375C2.55208 40.1875 3.63542 39.8229 4.21875 39.2812C4.76042 38.7604 5.4375 37.5 6.25 35.5L15.8438 12.1875L18.25 11.5938C23.7708 26.2396 26.7604 34.1562 27.2188 35.3438C28.0104 37.3646 28.6979 38.6562 29.2812 39.2188C29.8646 39.8021 30.9062 40.1875 32.4062 40.375V42H19.0312ZM14.9688 19.875H14.8438C13.6562 22.8333 12.4062 26.1146 11.0938 29.7188H18.4688L14.9688 19.875ZM35.0938 42V40.375C36.8854 40.2083 37.9896 39.9062 38.4062 39.4688C38.8438 38.9688 39.0625 37.7604 39.0625 35.8438V18.4062C39.0625 16.4896 38.8438 15.2917 38.4062 14.8125C37.9896 14.375 36.8854 14.0729 35.0938 13.9062V12.2812H49.1562V13.9062C47.3854 14.0729 46.3021 14.375 45.9062 14.8125C45.4688 15.2917 45.25 16.4896 45.25 18.4062V35.8438C45.25 37.7812 45.4688 38.9896 45.9062 39.4688C46.2812 39.9062 47.3646 40.2083 49.1562 40.375V42H35.0938ZM60.1778 37.7689L65.2978 33.2889C67.5259 34.0474 69.1496 35.9081 70.1689 38.8711L64.3022 42.8178C63.4726 41.04 62.0978 39.357 60.1778 37.7689ZM95.0722 31.9733C95.0485 30.2904 94.8233 28.6311 94.3967 26.9956C93.9226 25.2889 93.1404 23.7719 92.05 22.4444L95.7833 15.9022C96.8974 17.277 97.6915 18.8415 98.1656 20.5956C98.6396 22.3496 98.8767 24.1393 98.8767 25.9644C98.8767 28.0978 98.6396 30.1481 98.1656 32.1156L94.3967 42H79.6056L83.1611 31.9733H95.0722ZM107.104 24.5067C107.08 26.9956 106.795 29.4726 106.25 31.9378H109.344V42H101.948C102.327 40.317 102.6 38.48 102.766 36.4889L102.837 35.1378L102.908 33.0756C102.932 32.1748 102.944 31.2741 102.944 30.3733V29.0222C102.801 22.8593 101.972 16.7793 100.455 10.7822L104.65 0.719997C104.816 1.3837 105.278 3.44592 106.037 6.90667C106.819 10.3437 107.21 15.0252 107.21 20.9511C107.21 22.1363 107.175 23.3215 107.104 24.5067ZM120.271 29.9111C120.793 30.6696 121.539 31.2504 122.511 31.6533C122.843 31.7481 123.258 31.8193 123.756 31.8667V31.9022C124.04 31.9259 124.241 31.9496 124.36 31.9733H124.467V42C123.969 42 123.637 41.9881 123.471 41.9644H123.222C121.942 41.7037 120.947 40.637 120.236 38.7644C119.596 37.1289 119.121 35.837 118.813 34.8889L116.111 42H108.431V31.9733H116.787C116.763 30.2904 116.538 28.6311 116.111 26.9956C115.637 25.2889 114.855 23.7719 113.764 22.4444L117.498 15.9022C118.612 17.277 119.394 18.8415 119.844 20.5956C120.319 22.3496 120.556 24.1393 120.556 25.9644C120.556 27.3156 120.461 28.6311 120.271 29.9111ZM111.062 10.2489L114.76 4.16889C115.921 4.2637 116.976 4.73778 117.924 5.59111C118.873 6.42074 119.536 7.34519 119.916 8.36444L116.218 14.8C115.886 13.8044 115.305 12.8681 114.476 11.9911C113.646 11.0904 112.508 10.5096 111.062 10.2489ZM145.559 30.3022C146.056 30.2548 146.554 30.2311 147.052 30.2311C148.474 30.2311 149.873 30.3852 151.248 30.6933C152.03 30.8119 152.836 30.9185 153.665 31.0133C153.523 29.4963 153.168 27.9556 152.599 26.3911C151.959 24.5896 151.07 23.0963 149.932 21.9111L153.594 15.9378C154.376 16.8385 155.099 17.9526 155.763 19.28C156.261 20.157 156.699 21.1763 157.079 22.3378C157.482 23.4993 157.766 25.0281 157.932 26.9244L157.968 27.6711C157.968 28.2874 157.861 29.1289 157.647 30.1956C157.055 33.5378 155.716 36.8444 153.63 40.1156C153.393 40.4948 153.061 40.7437 152.634 40.8622C152.208 40.957 151.757 41.0044 151.283 41.0044C150.074 40.957 148.83 40.8148 147.55 40.5778C146.128 40.2696 144.741 40.1156 143.39 40.1156C143.034 40.1156 142.679 40.1274 142.323 40.1511C141.944 40.6252 141.541 41.0044 141.114 41.2889C140.45 41.763 139.597 42 138.554 42H134.003L132.261 35.7067C132.119 36.2044 131.965 36.797 131.799 37.4844C131.348 39.4044 130.839 40.6489 130.27 41.2178C129.938 41.5259 129.559 41.7393 129.132 41.8578C128.705 41.9526 128.255 42 127.781 42H124.332V31.9378H129.95C129.405 30.6104 128.587 29.1407 127.496 27.5289L131.159 21.2C131.941 22.4089 132.664 23.6415 133.328 24.8978V24.9333C133.351 24.9333 133.363 24.9452 133.363 24.9689C133.41 25.0874 133.529 25.3244 133.719 25.68C133.979 26.2252 134.216 26.9956 134.43 27.9911C134.548 28.56 134.608 29.1881 134.608 29.8756C134.608 30.397 134.572 30.9541 134.501 31.5467C134.453 31.6889 134.394 31.8311 134.323 31.9733H141.896C141.399 29.3422 140.593 26.8889 139.479 24.6133L143.141 18.32C144.042 19.8607 144.717 21.283 145.167 22.5867C145.618 23.8904 145.867 25.36 145.914 26.9956C145.914 28.2281 145.796 29.3304 145.559 30.3022ZM162.148 41.9289C162.196 38.0889 162.279 34.3437 162.397 30.6933C162.35 27.1141 162.148 23.8193 161.793 20.8089C161.437 17.7748 160.797 14.4326 159.873 10.7822L164.068 0.719997C165.538 6.78815 166.368 12.963 166.557 19.2444C166.605 20.4296 166.628 21.6148 166.628 22.8C166.628 24.1985 166.557 25.6563 166.415 27.1733C166.296 28.6904 166.036 30.3378 165.633 32.1156C165.088 34.1304 163.926 37.4015 162.148 41.9289ZM157.206 56.1156L158.557 52.3111L159.517 51.9911L159.482 51.7778L159.446 50.9956C159.446 49.2889 159.932 47.6296 160.904 46.0178C161.52 44.7615 162.48 43.9437 163.784 43.5644C164.163 43.4459 164.519 43.3867 164.851 43.3867C165.633 43.3867 166.344 43.6948 166.984 44.3111L165.562 47.9378C164.969 47.2978 164.282 46.9778 163.499 46.9778C162.504 46.9778 161.615 47.3215 160.833 48.0089C161.07 49.9526 162.054 51.0311 163.784 51.2444C165.159 50.9363 166.545 50.6637 167.944 50.4267L166.522 54.16C161.259 55.037 158.154 55.6889 157.206 56.1156Z" fill="#125F4F"/>
</svg>
