<svg width="24" height="24" viewBox="0 0 24 24" fill="none" xmlns="http://www.w3.org/2000/svg">
<path d="M19.4566 10.6915L6.32691 3.19931C6.05008 3.04424 5.7326 2.97712 5.41669 3.00689C5.10079 3.03666 4.80144 3.16191 4.55845 3.36596C4.31547 3.57002 4.14037 3.84322 4.05644 4.14922C3.97251 4.45523 3.98374 4.77953 4.08863 5.07899L6.44644 12.0602L4.08863 19.0415C4.00573 19.277 3.98049 19.529 4.015 19.7762C4.04952 20.0235 4.14279 20.2589 4.28701 20.4628C4.43123 20.6666 4.62219 20.8329 4.8439 20.9477C5.0656 21.0625 5.3116 21.1225 5.56128 21.1227C5.82978 21.1222 6.09365 21.0528 6.32769 20.9212L6.33472 20.9165L19.4597 13.411C19.7004 13.2748 19.9006 13.0772 20.0398 12.8383C20.1791 12.5994 20.2525 12.3278 20.2525 12.0513C20.2525 11.7747 20.1791 11.5031 20.0398 11.2643C19.9006 11.0254 19.7004 10.8277 19.4597 10.6915H19.4566ZM6.123 18.8774L8.10894 12.9977H12.4363C12.6849 12.9977 12.9234 12.899 13.0992 12.7232C13.275 12.5473 13.3738 12.3089 13.3738 12.0602C13.3738 11.8116 13.275 11.5731 13.0992 11.3973C12.9234 11.2215 12.6849 11.1227 12.4363 11.1227H8.10894L6.12222 5.24149L18.0566 12.0516L6.123 18.8774Z" fill="white"/>
</svg>
