<svg width="24" height="24" viewBox="0 0 24 24" fill="none" xmlns="http://www.w3.org/2000/svg">
<path d="M19.3421 12.9346L12.5182 20.1771C11.5822 21.1709 10.3128 21.729 8.98931 21.7288C7.66583 21.7285 6.39665 21.1699 5.46097 20.1757C4.52529 19.1816 3.99977 17.8334 4 16.4277C4.00023 15.022 4.52621 13.674 5.46222 12.6802L13.625 4.03423C14.249 3.37177 15.0953 2.99975 15.9776 3C16.4145 3.00012 16.847 3.09164 17.2506 3.26932C17.6542 3.447 18.0208 3.70736 18.3297 4.03555C18.6385 4.36374 18.8834 4.75332 19.0505 5.18205C19.2176 5.61078 19.3035 6.07027 19.3034 6.53427C19.3033 6.99827 19.2171 7.45771 19.0498 7.88635C18.8825 8.31498 18.6374 8.70443 18.3284 9.03244L18.3143 9.04657L10.3477 17.1917C10.2533 17.2882 10.1418 17.364 10.0198 17.4148C9.89777 17.4656 9.76751 17.4903 9.63647 17.4876C9.50542 17.4849 9.37617 17.4548 9.25608 17.399C9.13599 17.3433 9.02741 17.2629 8.93655 17.1626C8.8457 17.0623 8.77433 16.9439 8.72654 16.8143C8.67875 16.6847 8.65546 16.5463 8.65801 16.4071C8.66056 16.268 8.68889 16.1307 8.74139 16.0031C8.79389 15.8756 8.86953 15.7602 8.964 15.6637L16.923 7.52741C17.1718 7.26154 17.311 6.90159 17.3099 6.52675C17.3088 6.15191 17.1675 5.79289 16.9172 5.52866C16.7933 5.39782 16.6463 5.2942 16.4846 5.2237C16.323 5.15321 16.1498 5.11722 15.9751 5.11779C15.6222 5.11895 15.2841 5.26897 15.0354 5.53484L6.87258 14.1782C6.31117 14.7747 5.99586 15.5836 5.99602 16.427C5.9961 16.8447 6.07362 17.2582 6.22416 17.644C6.3747 18.0298 6.59532 18.3803 6.87341 18.6756C7.1515 18.9708 7.48161 19.205 7.84491 19.3647C8.20821 19.5245 8.59758 19.6067 8.99078 19.6066C9.78488 19.6064 10.5464 19.2712 11.1078 18.6747L17.9317 11.4322C18.0246 11.3336 18.1348 11.2554 18.256 11.202C18.3773 11.1487 18.5073 11.1212 18.6386 11.1212C18.7699 11.1212 18.8998 11.1487 19.0211 11.202C19.1424 11.2554 19.2526 11.3336 19.3454 11.4322C19.4383 11.5308 19.5119 11.6478 19.5621 11.7766C19.6124 11.9054 19.6382 12.0435 19.6382 12.1829C19.6382 12.3224 19.6124 12.4604 19.5621 12.5892C19.5119 12.718 19.4383 12.8351 19.3454 12.9337L19.3421 12.9346Z" fill="#FDD14A"/>
</svg>
