<svg width="24" height="24" viewBox="0 0 24 24" fill="none" xmlns="http://www.w3.org/2000/svg">
<path d="M20.9516 6.73772L16.7619 2.54897C16.4103 2.19747 15.9334 2 15.4363 2C14.9391 2 14.4622 2.19747 14.1106 2.54897L2.54938 14.1093C2.37468 14.2829 2.23616 14.4895 2.14186 14.717C2.04755 14.9446 1.99934 15.1886 2.00001 15.4349V19.6246C2.00001 20.1219 2.19755 20.5988 2.54918 20.9504C2.90081 21.3021 3.37773 21.4996 3.87501 21.4996H19.625C19.9234 21.4996 20.2095 21.3811 20.4205 21.1701C20.6315 20.9591 20.75 20.673 20.75 20.3746C20.75 20.0762 20.6315 19.7901 20.4205 19.5791C20.2095 19.3681 19.9234 19.2496 19.625 19.2496H11.0938L20.9516 9.38991C21.1258 9.21579 21.2639 9.00906 21.3582 8.78152C21.4525 8.55399 21.501 8.31011 21.501 8.06382C21.501 7.81753 21.4525 7.57365 21.3582 7.34611C21.2639 7.11858 21.1258 6.91184 20.9516 6.73772ZM7.90626 19.2496H4.25001V15.5933L12.125 7.71835L15.7813 11.3746L7.90626 19.2496ZM17.375 9.78085L13.7188 6.1246L15.4381 4.40522L19.0944 8.06147L17.375 9.78085Z" fill="#94A3B8"/>
</svg>
