<svg width="24" height="24" viewBox="0 0 24 24" fill="none" xmlns="http://www.w3.org/2000/svg">
<g clip-path="url(#clip0_83_128)">
<g filter="url(#filter0_ddi_83_128)">
<path d="M18.2323 8.35231C18.1585 8.35231 18.0958 8.33756 18.0441 8.30807C17.9924 8.27858 17.9518 8.22698 17.9223 8.15325L17.2803 6.6493L15.6641 5.94156C15.5903 5.91207 15.5386 5.87152 15.5091 5.81991C15.4796 5.76831 15.4648 5.70564 15.4648 5.63192C15.4648 5.5582 15.4796 5.49553 15.5091 5.44393C15.5386 5.39232 15.5903 5.35177 15.6641 5.32228L17.2803 4.63666L17.9223 3.19905C17.9518 3.12533 17.9924 3.07372 18.0441 3.04423C18.0958 3.01474 18.1585 3 18.2323 3C18.3061 3 18.3688 3.01474 18.4205 3.04423C18.4721 3.07372 18.5127 3.12533 18.5422 3.19905L19.1843 4.63666L20.8005 5.32228C20.8743 5.35177 20.926 5.39232 20.9555 5.44393C20.985 5.49553 20.9998 5.5582 20.9998 5.63192C20.9998 5.70564 20.985 5.76831 20.9555 5.81991C20.926 5.87152 20.8743 5.91207 20.8005 5.94156L19.1843 6.6493L18.5422 8.15325C18.5127 8.22698 18.4721 8.27858 18.4205 8.30807C18.3688 8.33756 18.3061 8.35231 18.2323 8.35231ZM18.2323 21.534C18.1732 21.534 18.1142 21.5193 18.0552 21.4898C17.9961 21.4603 17.9518 21.4087 17.9223 21.335L17.2803 19.8974L15.6862 19.2117C15.6124 19.1822 15.5607 19.1417 15.5312 19.0901C15.5017 19.0385 15.4869 18.9758 15.4869 18.9021C15.4869 18.8284 15.5017 18.7657 15.5312 18.7141C15.5607 18.6625 15.6124 18.622 15.6862 18.5925L17.2803 17.9068L17.9223 16.3808C17.9518 16.307 17.9924 16.2554 18.0441 16.2259C18.0958 16.1965 18.1585 16.1817 18.2323 16.1817C18.3061 16.1817 18.3688 16.1965 18.4205 16.2259C18.4721 16.2554 18.5127 16.307 18.5422 16.3808L19.1843 17.9068L20.7784 18.5925C20.8522 18.622 20.9038 18.6625 20.9334 18.7141C20.9629 18.7657 20.9776 18.8284 20.9776 18.9021C20.9776 18.9758 20.9629 19.0385 20.9334 19.0901C20.9038 19.1417 20.8522 19.1822 20.7784 19.2117L19.1843 19.8974L18.5422 21.335C18.5127 21.4087 18.4684 21.4603 18.4094 21.4898C18.3504 21.5193 18.2913 21.534 18.2323 21.534ZM8.51285 17.7078C8.39477 17.7078 8.28038 17.6746 8.16968 17.6083C8.05898 17.5419 7.97411 17.4498 7.91507 17.3318L6.47597 14.2575L3.37638 12.8642C3.2583 12.8052 3.16605 12.7204 3.09963 12.6098C3.03321 12.4992 3 12.385 3 12.267C3 12.1491 3.03321 12.0348 3.09963 11.9242C3.16605 11.8136 3.2583 11.7288 3.37638 11.6699L6.47597 10.2765L7.91507 7.22434C7.97411 7.09164 8.05898 6.99211 8.16968 6.92576C8.28038 6.85941 8.39477 6.82624 8.51285 6.82624C8.63093 6.82624 8.74532 6.85941 8.85602 6.92576C8.96672 6.99211 9.05159 7.08427 9.11063 7.20222L10.5719 10.2765L13.6493 11.6699C13.7822 11.7288 13.8818 11.8136 13.9482 11.9242C14.0146 12.0348 14.0478 12.1491 14.0478 12.267C14.0478 12.385 14.0146 12.4992 13.9482 12.6098C13.8818 12.7204 13.7822 12.8052 13.6493 12.8642L10.5719 14.2575L9.11063 17.3318C9.05159 17.4645 8.96672 17.5603 8.85602 17.6193C8.74532 17.6783 8.63093 17.7078 8.51285 17.7078Z" fill="#FDD14A"/>
</g>
</g>
<defs>
<filter id="filter0_ddi_83_128" x="-3.36677" y="-2.56177" width="30.0017" height="31.6336" filterUnits="userSpaceOnUse" color-interpolation-filters="sRGB">
<feFlood flood-opacity="0" result="BackgroundImageFix"/>
<feColorMatrix in="SourceAlpha" type="matrix" values="0 0 0 0 0 0 0 0 0 0 0 0 0 0 0 0 0 0 127 0" result="hardAlpha"/>
<feOffset dx="-1.31726" dy="2.48816"/>
<feGaussianBlur stdDeviation="2.52475"/>
<feComposite in2="hardAlpha" operator="out"/>
<feColorMatrix type="matrix" values="0 0 0 0 0.0506089 0 0 0 0 0.0159861 0 0 0 0 0.191833 0 0 0 0.25 0"/>
<feBlend mode="normal" in2="BackgroundImageFix" result="effect1_dropShadow_83_128"/>
<feColorMatrix in="SourceAlpha" type="matrix" values="0 0 0 0 0 0 0 0 0 0 0 0 0 0 0 0 0 0 127 0" result="hardAlpha"/>
<feOffset dx="1.24408" dy="-1.1709"/>
<feGaussianBlur stdDeviation="2.19544"/>
<feComposite in2="hardAlpha" operator="out"/>
<feColorMatrix type="matrix" values="0 0 0 0 1 0 0 0 0 1 0 0 0 0 1 0 0 0 0.35 0"/>
<feBlend mode="normal" in2="effect1_dropShadow_83_128" result="effect2_dropShadow_83_128"/>
<feBlend mode="normal" in="SourceGraphic" in2="effect2_dropShadow_83_128" result="shape"/>
<feColorMatrix in="SourceAlpha" type="matrix" values="0 0 0 0 0 0 0 0 0 0 0 0 0 0 0 0 0 0 127 0" result="hardAlpha"/>
<feOffset dy="3.07361"/>
<feGaussianBlur stdDeviation="1.9393"/>
<feComposite in2="hardAlpha" operator="arithmetic" k2="-1" k3="1"/>
<feColorMatrix type="matrix" values="0 0 0 0 1 0 0 0 0 1 0 0 0 0 1 0 0 0 1 0"/>
<feBlend mode="normal" in2="shape" result="effect3_innerShadow_83_128"/>
</filter>
<clipPath id="clip0_83_128">
<rect width="24" height="24" fill="white"/>
</clipPath>
</defs>
</svg>
