<svg width="24" height="24" viewBox="0 0 24 24" fill="none" xmlns="http://www.w3.org/2000/svg">
<path d="M20.625 5.75H4.125C3.82663 5.75 3.54048 5.86853 3.3295 6.0795C3.11853 6.29048 3 6.57663 3 6.875C3 7.17337 3.11853 7.45952 3.3295 7.6705C3.54048 7.88147 3.82663 8 4.125 8H4.5V20.75C4.5 21.2473 4.69754 21.7242 5.04917 22.0758C5.40081 22.4275 5.87772 22.625 6.375 22.625H18.375C18.8723 22.625 19.3492 22.4275 19.7008 22.0758C20.0525 21.7242 20.25 21.2473 20.25 20.75V8H20.625C20.9234 8 21.2095 7.88147 21.4205 7.6705C21.6315 7.45952 21.75 7.17337 21.75 6.875C21.75 6.57663 21.6315 6.29048 21.4205 6.0795C21.2095 5.86853 20.9234 5.75 20.625 5.75ZM18 20.375H6.75V8H18V20.375ZM7.5 3.125C7.5 2.82663 7.61853 2.54048 7.8295 2.3295C8.04048 2.11853 8.32663 2 8.625 2H16.125C16.4234 2 16.7095 2.11853 16.9205 2.3295C17.1315 2.54048 17.25 2.82663 17.25 3.125C17.25 3.42337 17.1315 3.70952 16.9205 3.9205C16.7095 4.13147 16.4234 4.25 16.125 4.25H8.625C8.32663 4.25 8.04048 4.13147 7.8295 3.9205C7.61853 3.70952 7.5 3.42337 7.5 3.125Z" fill="#F43F5E"/>
</svg>
